<svg width="51" height="66" viewBox="0 0 51 66" fill="none" xmlns="http://www.w3.org/2000/svg">
<path d="M27.0173 49.2643H40.3577M47.379 57.75H19.996C18.4449 57.75 17.1875 56.4836 17.1875 54.9214V47.3653C17.1875 46.7615 17.3794 46.1735 17.735 45.6874L25.7897 34.6779C26.5197 33.6801 26.5197 32.3199 25.7897 31.3221L17.735 20.3126C17.3794 19.8265 17.1875 19.2385 17.1875 18.6347V11.0786C17.1875 9.51639 18.4449 8.25 19.996 8.25H46.6769C48.228 8.25 49.4854 9.51639 49.4854 11.0786V18.6892C49.4854 19.2593 49.3144 19.816 48.9947 20.2865L41.484 31.3421C40.8095 32.3349 40.8324 33.6488 41.5409 34.6172L49.64 45.6874C49.9956 46.1735 50.1875 46.7615 50.1875 47.3653V54.9214C50.1875 56.4836 48.9301 57.75 47.379 57.75Z" stroke="white" stroke-opacity="0.26" stroke-width="5" stroke-linecap="round" stroke-linejoin="round"/>
</svg>
