<svg width="24" height="25" viewBox="0 0 24 25" fill="none" xmlns="http://www.w3.org/2000/svg">
<path fill-rule="evenodd" clip-rule="evenodd" d="M9 6.4999L20.4965 1.86235C22.1822 1.20681 24 2.45029 24 4.25893V18.3608C24 20.1159 22.2806 21.3553 20.6155 20.8002L9 16.7856V6.4999ZM5.14286 6.5H6.85714V18.5C6.85714 19.4468 7.62466 20.2143 8.57143 20.2143H9.42857C10.3753 20.2143 11.1429 20.9818 11.1429 21.9286C11.1429 22.8754 10.3753 23.6429 9.42857 23.6429H8.57143C5.73111 23.6429 3.42857 21.3404 3.42857 18.5V16.4931C1.4311 15.7871 0 13.8821 0 11.6429C0 8.80254 2.30254 6.5 5.14286 6.5Z" fill="white"/>
</svg>
