<svg width="151" height="151" viewBox="0 0 151 151" fill="none" xmlns="http://www.w3.org/2000/svg">
<path d="M128.973 78.8309C128.973 77.4502 127.853 76.3309 126.473 76.3309C125.092 76.3309 123.973 77.4502 123.973 78.8309H128.973ZM72.6738 28.0368C74.0545 28.0368 75.1738 26.9175 75.1738 25.5368C75.1738 24.1561 74.0545 23.0368 72.6738 23.0368V28.0368ZM102.073 78.8309C102.073 77.4502 100.954 76.3309 99.5732 76.3309C98.1925 76.3309 97.0732 77.4502 97.0732 78.8309H102.073ZM72.6738 54.6838C74.0545 54.6838 75.1738 53.5645 75.1738 52.1838C75.1738 50.8031 74.0545 49.6838 72.6738 49.6838V54.6838ZM98.2092 55.9799C99.1901 55.0082 99.1975 53.4253 98.2258 52.4444C97.2541 51.4635 95.6712 51.456 94.6903 52.4277L98.2092 55.9799ZM70.9144 75.9806C69.9335 76.9523 69.926 78.5352 70.8977 79.5161C71.8694 80.497 73.4523 80.5045 74.4332 79.5328L70.9144 75.9806ZM132.125 37.7173L133.884 39.4934C134.559 38.8251 134.797 37.8322 134.498 36.9308C134.199 36.0294 133.416 35.375 132.475 35.242L132.125 37.7173ZM110.727 58.9149L109.943 61.2888C110.836 61.5836 111.818 61.3526 112.486 60.691L110.727 58.9149ZM91.7059 40.0726L89.9465 38.2965C89.2689 38.9677 89.0323 39.966 89.3365 40.8699L91.7059 40.0726ZM113.104 18.875L115.579 18.5182C115.444 17.5836 114.794 16.8047 113.899 16.5046C113.004 16.2045 112.016 16.4344 111.345 17.0989L113.104 18.875ZM96.4611 54.2043L94.0916 55.0016C94.3426 55.7474 94.93 56.3315 95.6772 56.5783L96.4611 54.2043ZM115.482 35.362L113.007 35.7189C113.166 36.8186 114.031 37.6817 115.132 37.8374L115.482 35.362ZM123.973 78.8309C123.973 106.862 101.028 129.625 72.6738 129.625V134.625C103.745 134.625 128.973 109.667 128.973 78.8309H123.973ZM72.6738 129.625C44.32 129.625 21.375 106.862 21.375 78.8309H16.375C16.375 109.667 41.6031 134.625 72.6738 134.625V129.625ZM21.375 78.8309C21.375 50.8002 44.32 28.0368 72.6738 28.0368V23.0368C41.6031 23.0368 16.375 47.9945 16.375 78.8309H21.375ZM97.0732 78.8309C97.0732 92.1448 86.1715 102.978 72.6738 102.978V107.978C88.8884 107.978 102.073 94.9505 102.073 78.8309H97.0732ZM72.6738 102.978C59.1761 102.978 48.2744 92.1448 48.2744 78.8309H43.2744C43.2744 94.9505 56.4592 107.978 72.6738 107.978V102.978ZM48.2744 78.8309C48.2744 65.517 59.1761 54.6838 72.6738 54.6838V49.6838C56.4592 49.6838 43.2744 62.7112 43.2744 78.8309H48.2744ZM94.6903 52.4277L70.9144 75.9806L74.4332 79.5328L98.2092 55.9799L94.6903 52.4277ZM130.366 35.9412L108.967 57.1388L112.486 60.691L133.884 39.4934L130.366 35.9412ZM93.4653 41.8487L114.864 20.6511L111.345 17.0989L89.9465 38.2965L93.4653 41.8487ZM111.511 56.541L97.245 51.8304L95.6772 56.5783L109.943 61.2888L111.511 56.541ZM98.8306 53.407L94.0754 39.2753L89.3365 40.8699L94.0916 55.0016L98.8306 53.407ZM110.63 19.2318L113.007 35.7189L117.956 35.0052L115.579 18.5182L110.63 19.2318ZM115.132 37.8374L131.775 40.1927L132.475 35.242L115.832 32.8867L115.132 37.8374Z" fill="black" fill-opacity="0.08"/>
</svg>
